<svg id="Layer_1" data-name="Layer 1" xmlns="http://www.w3.org/2000/svg" xmlns:xlink="http://www.w3.org/1999/xlink" viewBox="0 0 50 50"><defs><style>.cls-1{fill:#fff;}.cls-2{mask:url(#mask);}.cls-3{fill:#178c7b;}.cls-4{fill:#fefefe;}.cls-5{fill:#00adee;}.cls-6{fill:#a5cd38;}.cls-7{fill:#f4811f;}.cls-8{fill:#231f20;}</style><mask id="mask" x="6.62" y="4.75" width="43.38" height="37.62" maskUnits="userSpaceOnUse"><g id="group-b"><polygon id="group-a" class="cls-1" points="6.62 4.75 50 4.75 50 42.37 6.62 42.37 6.62 4.75"/></g></mask></defs><title>logo</title><g class="cls-2"><path class="cls-3" d="M50,4.75V35.8a6.59,6.59,0,0,1-6.57,6.57H13.19A6.59,6.59,0,0,1,6.62,35.8v-31H50"/></g><path class="cls-4" d="M18.66,21.15V38H16.74V19.71H14.83V38H12.91V19.71H11V38H9.09V20.52a2.34,2.34,0,0,1,.64-1.85,3.12,3.12,0,0,1,2-.55,3,3,0,0,1,2.09.66,3,3,0,0,1,.92-.51A3.61,3.61,0,0,1,16,18.12a3,3,0,0,1,2.08.57,2.44,2.44,0,0,1,.62,1.89ZM23,29.89h1.78V25.72H23Zm1.78,3.49h1.77v2.53A2.25,2.25,0,0,1,26,37.65a3.18,3.18,0,0,1-2.08.52,3.16,3.16,0,0,1-2.07-.52,2.23,2.23,0,0,1-.6-1.78V26.39a2.19,2.19,0,0,1,.59-1.77,3.15,3.15,0,0,1,2-.49,4.89,4.89,0,0,1,1.59.21,1.54,1.54,0,0,1,.84.73,3.12,3.12,0,0,1,.25,1.36v5H23v5.14h1.78Zm4.4-15.11H31v6.66a2.67,2.67,0,0,1,2-.8c1.06,0,1.58.57,1.59,1.71V38H32.76V25.72H31V38H29.21Zm12.12,6v1.55H39.55V36.48h1.78V38H40a2.27,2.27,0,0,1-1.72-.61,3.11,3.11,0,0,1-.49-2V25.82H36.27V24.27h1.51V20.48h1.77v3.79Zm3.51,12.31h1.79V31.34H44.84ZM48.4,27V38H46.63v-.66a3.08,3.08,0,0,1-2,.8,1.47,1.47,0,0,1-1.18-.44,1.79,1.79,0,0,1-.4-1.28V31.63a2.92,2.92,0,0,1,.16-1.14,1.45,1.45,0,0,1,1.42-.75,3,3,0,0,1,2,.8V25.72H44.84v2.42H43.07V26.39a2.23,2.23,0,0,1,.59-1.77,3.2,3.2,0,0,1,2.06-.49,4.93,4.93,0,0,1,1.59.21,1.57,1.57,0,0,1,.84.73,3.27,3.27,0,0,1,.25,1.36Z"/><path class="cls-4" d="M38.36,45.25H38a1.92,1.92,0,0,1-1.61-.66,2.33,2.33,0,0,1-.42-1.53V41.59a2.88,2.88,0,0,1,.29-1.46,1.6,1.6,0,0,1,1.06-.76,4.14,4.14,0,0,1,.89-.07,4.09,4.09,0,0,1,.88.07,1.59,1.59,0,0,1,1.08.74,1.81,1.81,0,0,1,.22.62,4.32,4.32,0,0,1,.08.92v1.43a2.77,2.77,0,0,1-.28,1.3A1.81,1.81,0,0,1,38.36,45.25Zm-.27-1.9h0Zm.17,0Zm-.21-.23h.23V41.45h-.23V43.1Zm-4.32,2.15h-.41a1.92,1.92,0,0,1-1.61-.66,2.33,2.33,0,0,1-.42-1.53V41.59a2.88,2.88,0,0,1,.29-1.46,1.6,1.6,0,0,1,1.06-.76,4.14,4.14,0,0,1,.89-.07,4.09,4.09,0,0,1,.88.07,1.59,1.59,0,0,1,1.08.74,1.89,1.89,0,0,1,.22.62,4.32,4.32,0,0,1,.08.92v1.43a2.77,2.77,0,0,1-.28,1.3A1.81,1.81,0,0,1,33.73,45.25Zm-.27-1.9h0Zm0-.25h.23V41.45h-.23V43.1Zm.22-1.86Zm-3.6,4H28.09l-.25-1-.26,1H25.63l-1.17-4.48-1.16,2.1v2.38H21.16V42.83l-1.87-3.5h2.43l.52,1,.53-1h3.54l.28,1.11.16-.66-.39-1.61,1.18,1.16h1.27l.29,1.14.29-1.14h2.22Zm-16.4,0H11.5V39.33h2.66a1.54,1.54,0,0,1,1.48.88,2.2,2.2,0,0,1,.19.63,4.09,4.09,0,0,1,0,.63,4,4,0,0,1-.06.71,1.82,1.82,0,0,1-.3.73,1.65,1.65,0,0,1-1.4.7h-.47Zm29.7,0H40.65V39.33h2.6a2,2,0,0,1,1.13.31,1.86,1.86,0,0,1,.69.8,3.38,3.38,0,0,1,.24,1.38v.88a3.9,3.9,0,0,1-.13,1.1,1.92,1.92,0,0,1-.79,1.1,1.43,1.43,0,0,1-.5.24A2,2,0,0,1,43.34,45.21Zm-.55-2.15h.37v0s0-.17,0-.43v-.92a1,1,0,0,0,0-.19h-.38ZM20.08,45.21H16.15V39.33h2.14v3.73h1.79Z"/><path d="M15.08,41.47A3.32,3.32,0,0,1,15,42a1.27,1.27,0,0,1-.18.43.85.85,0,0,1-.75.35H12.85v1.61h-.56V40.12h1.87a.78.78,0,0,1,.77.43,1.31,1.31,0,0,1,.12.41A3.89,3.89,0,0,1,15.08,41.47Zm-.55.05a1.67,1.67,0,0,0-.08-.64.27.27,0,0,0-.14-.14.65.65,0,0,0-.29-.05H12.85v1.54h1.3a.4.4,0,0,0,.35-.37A1.4,1.4,0,0,0,14.53,41.52Zm4.76,2.91H16.93V40.12h.57v3.73h1.79Zm4.62-4.31-1.4,2.51v1.8h-.57v-1.8L20.6,40.12h.65l1,1.85,1-1.85Zm6.68,0-1.16,4.31H28.7l-.92-3.76.11.11L27,44.43h-.73l-1.13-4.31h.59l1,3.79h-.12l.94-3.79h.72l.95,3.79H29l1-3.79Zm4.41,3a2,2,0,0,1-.19.94c-.15.29-.52.44-1.08.44h-.41a1.22,1.22,0,0,1-1-.36,1.7,1.7,0,0,1-.25-1V41.59a2.32,2.32,0,0,1,.19-1.07.83.83,0,0,1,.56-.38,3.17,3.17,0,0,1,.71,0,3.22,3.22,0,0,1,.71,0,.8.8,0,0,1,.56.36,1.15,1.15,0,0,1,.14.38,4.46,4.46,0,0,1,.06.77Zm-.56,0v-1.6a2.12,2.12,0,0,0,0-.3c0-.3-.16-.47-.35-.49a3.63,3.63,0,0,0-.5,0h-.2l-.37,0a.44.44,0,0,0-.29.21,1.41,1.41,0,0,0-.09.57V43a2.27,2.27,0,0,0,0,.44,1.19,1.19,0,0,0,.08.21.32.32,0,0,0,.23.17,1.21,1.21,0,0,0,.33,0h.43a2.18,2.18,0,0,0,.35,0,.39.39,0,0,0,.23-.16A1.25,1.25,0,0,0,34.44,43.08Zm5.19,0a2,2,0,0,1-.19.94c-.15.29-.52.44-1.08.44H38a1.22,1.22,0,0,1-1-.36,1.7,1.7,0,0,1-.25-1V41.59a2.19,2.19,0,0,1,.19-1.07.83.83,0,0,1,.56-.38,3.17,3.17,0,0,1,.71,0,3.22,3.22,0,0,1,.71,0,.8.8,0,0,1,.56.36,1.15,1.15,0,0,1,.14.38,4.46,4.46,0,0,1,.06.77Zm-.56,0v-1.6a2.12,2.12,0,0,0,0-.3c0-.3-.16-.47-.35-.49a3.63,3.63,0,0,0-.5,0H38l-.37,0a.44.44,0,0,0-.29.21,1.41,1.41,0,0,0-.09.57V43a2.27,2.27,0,0,0,0,.44,1.19,1.19,0,0,0,.08.21.32.32,0,0,0,.23.17,1.21,1.21,0,0,0,.33,0h.43a2.18,2.18,0,0,0,.35,0,.39.39,0,0,0,.23-.16A1.25,1.25,0,0,0,39.07,43.08Zm5.46-.38a3,3,0,0,1-.11.88,1.15,1.15,0,0,1-.47.67.84.84,0,0,1-.27.13,1.27,1.27,0,0,1-.34,0h-1.9V40.12h1.81a1.28,1.28,0,0,1,.7.18,1,1,0,0,1,.4.47,2.48,2.48,0,0,1,.18,1ZM44,42.59v-.92c0-.65-.22-1-.66-1H42v3.16h1.21a.63.63,0,0,0,.59-.25,1.51,1.51,0,0,0,.15-.48C44,43,44,42.82,44,42.59Z"/><path class="cls-5" d="M6.81,11.39c-2.32,0-4.22-1.31-4.22-2.91s1.9-2.92,4.22-2.92S11,6.87,11,8.48s-1.9,2.91-4.23,2.91"/><path class="cls-6" d="M10.91,15.44c-1.57,0-2.86-.81-2.86-1.8s1.29-1.79,2.86-1.79,2.86.81,2.86,1.79-1.28,1.8-2.86,1.8"/><path class="cls-7" d="M2.13,15.19A1.94,1.94,0,0,1,0,13.54,1.94,1.94,0,0,1,2.13,11.9a1.93,1.93,0,0,1,2.12,1.64,1.93,1.93,0,0,1-2.12,1.65"/><path class="cls-8" d="M10.24,15c-3.19,2.49-3.32,7.23-3.62,10.56-.08-3.4-.79-8.55-4-11.43.66.61,1.65,1.17,2.34,1.75,1.1.94,1.25.32,1.37-.87.15-1.45.23-2.93.39-4.38,0,1.46.2,2.95.25,4.42,0,1.23.35,1.55,1.56.82.52-.3,1.21-.52,1.69-.87"/></svg>